<svg xmlns="http://www.w3.org/2000/svg" xmlns:xlink="http://www.w3.org/1999/xlink" version="1.1" width="256" height="256" viewBox="0 0 256 256" xml:space="preserve">

<defs>
</defs>
<g style="stroke: none; stroke-width: 0; stroke-dasharray: none; stroke-linecap: butt; stroke-linejoin: miter; stroke-miterlimit: 10; fill: none; fill-rule: nonzero; opacity: 1;" transform="translate(1.4065934065934016 1.4065934065934016) scale(2.81 2.81)" >
	<path d="M 88.277 34.14 h -8.248 c -0.672 -2.168 -1.545 -4.247 -2.587 -6.223 l 5.84 -5.84 c 0.673 -0.673 0.673 -1.763 0 -2.436 L 70.359 6.719 c -0.673 -0.673 -1.763 -0.673 -2.436 0 l -5.839 5.839 c -1.976 -1.043 -4.054 -1.916 -6.223 -2.587 V 1.723 C 55.86 0.771 55.089 0 54.138 0 H 35.862 c -0.951 0 -1.723 0.771 -1.723 1.723 v 8.248 c -2.169 0.672 -4.247 1.545 -6.223 2.587 l -5.84 -5.84 c -0.673 -0.673 -1.763 -0.673 -2.436 0 L 6.719 19.641 c -0.673 0.673 -0.673 1.763 0 2.436 l 5.84 5.84 c -1.043 1.976 -1.916 4.054 -2.587 6.223 H 1.723 C 0.771 34.14 0 34.911 0 35.862 v 18.275 c 0 0.951 0.771 1.723 1.723 1.723 h 8.248 c 0.672 2.169 1.545 4.247 2.587 6.223 l -5.84 5.84 c -0.673 0.673 -0.673 1.763 0 2.436 l 12.922 12.922 c 0.673 0.673 1.763 0.673 2.436 0 l 5.839 -5.839 c 1.976 1.043 4.054 1.916 6.223 2.587 v 8.248 c 0 0.951 0.771 1.723 1.723 1.723 h 18.275 c 0.951 0 1.723 -0.771 1.723 -1.723 v -8.248 c 2.169 -0.672 4.247 -1.545 6.223 -2.587 l 5.84 5.84 c 0.673 0.673 1.763 0.673 2.436 0 l 12.922 -12.922 c 0.673 -0.673 0.673 -1.763 0 -2.436 l -5.839 -5.839 c 1.043 -1.976 1.916 -4.054 2.587 -6.223 h 8.248 c 0.951 0 1.723 -0.771 1.723 -1.723 V 35.862 C 90 34.911 89.229 34.14 88.277 34.14 z M 45 67.5 c -12.426 0 -22.5 -10.074 -22.5 -22.5 c 0 -12.426 10.074 -22.5 22.5 -22.5 S 67.5 32.574 67.5 45 C 67.5 57.426 57.426 67.5 45 67.5 z" style="stroke: none; stroke-width: 1; stroke-dasharray: none; stroke-linecap: butt; stroke-linejoin: miter; stroke-miterlimit: 10; fill: rgb(0,0,0); fill-rule: nonzero; opacity: 1;" transform=" matrix(1 0 0 1 0 0) " stroke-linecap="round" />
</g>
</svg>